<svg xmlns="http://www.w3.org/2000/svg" viewBox="0 0 1024 1024" role="img" aria-label="OpenClass mark">
  <rect x="0" y="0" width="1024" height="1024" rx="228" fill="#fffefb"/>
  <g transform="translate(512 512)" fill="none" stroke="#171717" stroke-width="56" stroke-linecap="round" stroke-linejoin="round">
    <path d="M0 -246 C76 -308 190 -286 239 -202 C279 -133 256 -46 186 -7 C125 27 53 8 20 -48"/>
    <path d="M0 -246 C76 -308 190 -286 239 -202 C279 -133 256 -46 186 -7 C125 27 53 8 20 -48" transform="rotate(60)"/>
    <path d="M0 -246 C76 -308 190 -286 239 -202 C279 -133 256 -46 186 -7 C125 27 53 8 20 -48" transform="rotate(120)"/>
    <path d="M0 -246 C76 -308 190 -286 239 -202 C279 -133 256 -46 186 -7 C125 27 53 8 20 -48" transform="rotate(180)"/>
    <path d="M0 -246 C76 -308 190 -286 239 -202 C279 -133 256 -46 186 -7 C125 27 53 8 20 -48" transform="rotate(240)"/>
    <path d="M0 -246 C76 -308 190 -286 239 -202 C279 -133 256 -46 186 -7 C125 27 53 8 20 -48" transform="rotate(300)"/>
  </g>
</svg>
